<svg width="100%" height="100%" id="svg" viewBox="0 0 1440 600" xmlns="http://www.w3.org/2000/svg" class="transition duration-300 ease-in-out delay-150"><path d="M 0,600 C 0,600 0,200 0,200 C 279,217 558,234 798,234 C 1038,234 1239,217 1440,200 C 1440,200 1440,600 1440,600 Z" stroke="none" stroke-width="0" fill="#edf3f888" class="transition-all duration-300 ease-in-out delay-150 path-0" transform="rotate(-180 720 300)"></path><path d="M 0,600 C 0,600 0,400 0,400 C 274,429.5 548,459 788,459 C 1028,459 1234,429.5 1440,400 C 1440,400 1440,600 1440,600 Z" stroke="none" stroke-width="0" fill="#edf3f8ff" class="transition-all duration-300 ease-in-out delay-150 path-1" transform="rotate(-180 720 300)"></path></svg>